<svg width="181" height="181" viewBox="0 0 181 181" fill="none" xmlns="http://www.w3.org/2000/svg">
<circle cx="90" cy="90.1816" r="90" fill="#FB5517"/>
<path d="M91.2411 178.94L62.6895 150.388L116.689 36.1816C133.655 49.8368 170.689 85.4643 180.62 91.4229C181.117 98.8712 178.965 104.664 178.138 110.044C175.655 118.526 167.958 138.471 157.034 150.388C143.379 165.285 129.103 171.492 124.138 173.354C119.172 175.216 112.965 177.078 104.896 178.94C98.4411 180.43 94.7584 179.147 91.2411 178.94Z" fill="#E34509"/>
<path d="M45.6883 68.0876C45.6883 59.7345 51.5734 51.3814 53.8515 48.1541C58.5976 41.1299 79.4803 24.4238 107.767 31.8276C133.016 42.6487 132.446 60.4939 135.294 65.9993C137.572 70.4037 136.243 84.2875 135.294 90.6789L128.839 115.738L124.283 152.947C103.717 153.074 62.5843 152.682 62.5843 150.1V137.95H54.4211C52.2695 137.823 47.5108 136.849 45.6883 133.963C43.8658 131.077 44.9289 114.915 45.6883 107.195C43.6633 107.638 38.9679 108.258 36.386 107.195C33.8041 106.132 33.4118 105.234 33.5383 104.917L39.6133 94.2859C41.6383 89.0336 45.6883 76.4407 45.6883 68.0876Z" fill="#011633"/>
<mask id="path-4-inside-1_2_530" fill="white">
<rect x="70.251" y="56.7891" width="41.0206" height="41.0206" rx="3.7594"/>
</mask>
<rect x="70.251" y="56.7891" width="41.0206" height="41.0206" rx="3.7594" stroke="#E7F1FF" stroke-width="10.0251" mask="url(#path-4-inside-1_2_530)"/>
<mask id="path-5-inside-2_2_530" fill="white">
<rect x="79.2754" y="65.8135" width="22.5613" height="22.5613" rx="2.08856"/>
</mask>
<rect x="79.2754" y="65.8135" width="22.5613" height="22.5613" rx="2.08856" stroke="#E7F1FF" stroke-width="10.0251" mask="url(#path-5-inside-2_2_530)"/>
<line x1="80.6855" y1="59.4286" x2="80.6855" y2="48.8158" stroke="#E7F1FF" stroke-width="2.92398" stroke-linecap="round"/>
<line x1="80.6855" y1="106.602" x2="80.6855" y2="95.9896" stroke="#E7F1FF" stroke-width="2.92398" stroke-linecap="round"/>
<line x1="1.46199" y1="-1.46199" x2="12.0748" y2="-1.46199" transform="matrix(0.999977 0.00678708 0.00678708 -0.999977 107.99 84.6826)" stroke="#E7F1FF" stroke-width="2.92398" stroke-linecap="round"/>
<line x1="1.46199" y1="-1.46199" x2="12.0748" y2="-1.46199" transform="matrix(0.999977 0.00678708 0.00678708 -0.999977 59.5859 84.6826)" stroke="#E7F1FF" stroke-width="2.92398" stroke-linecap="round"/>
<line x1="90.12" y1="59.4286" x2="90.12" y2="48.8158" stroke="#E7F1FF" stroke-width="2.92398" stroke-linecap="round"/>
<line x1="90.12" y1="106.602" x2="90.12" y2="95.9896" stroke="#E7F1FF" stroke-width="2.92398" stroke-linecap="round"/>
<line x1="1.46199" y1="-1.46199" x2="12.0748" y2="-1.46199" transform="matrix(0.999977 0.00678708 0.00678708 -0.999977 108.055 75.248)" stroke="#E7F1FF" stroke-width="2.92398" stroke-linecap="round"/>
<line x1="1.46199" y1="-1.46199" x2="12.0748" y2="-1.46199" transform="matrix(0.999977 0.00678708 0.00678708 -0.999977 59.6494 75.248)" stroke="#E7F1FF" stroke-width="2.92398" stroke-linecap="round"/>
<line x1="99.5546" y1="59.4286" x2="99.5546" y2="48.8158" stroke="#E7F1FF" stroke-width="2.92398" stroke-linecap="round"/>
<line x1="99.5546" y1="106.602" x2="99.5546" y2="95.9896" stroke="#E7F1FF" stroke-width="2.92398" stroke-linecap="round"/>
<line x1="1.46199" y1="-1.46199" x2="12.0748" y2="-1.46199" transform="matrix(0.999977 0.00678708 0.00678708 -0.999977 108.118 65.8135)" stroke="#E7F1FF" stroke-width="2.92398" stroke-linecap="round"/>
<line x1="1.46199" y1="-1.46199" x2="12.0748" y2="-1.46199" transform="matrix(0.999977 0.00678708 0.00678708 -0.999977 59.7139 65.8135)" stroke="#E7F1FF" stroke-width="2.92398" stroke-linecap="round"/>
</svg>
