<svg width="180" height="181" viewBox="0 0 180 181" fill="none" xmlns="http://www.w3.org/2000/svg">
<circle cx="89.9483" cy="90.1299" r="89.9483" fill="#FB5517"/>
<path d="M129.849 38.7207L35.4844 119.887C41.6433 132.205 57.5247 161.196 71.7783 178.617C86.0319 181.785 103.233 179.937 110.052 178.617C120.83 175.538 145.686 164.76 158.884 146.283C172.609 135.724 178.68 104.05 180 89.5322L129.849 38.7207Z" fill="#E34509"/>
<rect x="34.7942" y="64.4588" width="57.7698" height="57.013" fill="#011633" stroke="#FB5517" stroke-width="1.26029"/>
<g filter="url(#filter0_d_2_563)">
<path d="M71.6706 110.75C69.8312 110.75 68.3565 110.428 67.2466 109.785C66.1683 109.141 65.1376 108.08 64.1545 106.6C63.1397 108.24 62.0139 109.35 60.777 109.93C59.5719 110.477 58.2083 110.75 56.686 110.75C54.3709 110.75 52.4999 110.058 51.0728 108.675C49.6774 107.291 48.9797 105.473 48.9797 103.221C48.9797 102.32 49.2017 101.371 49.6456 100.374C50.0896 99.344 50.8032 98.4592 51.7863 97.7192H47.0293V94.1478H58.1607V97.5744C56.2579 97.9927 54.8942 98.6845 54.0697 99.6497C53.2451 100.615 52.8328 101.725 52.8328 102.98C52.8328 104.17 53.1975 105.136 53.927 105.876C54.6564 106.583 55.6553 106.937 56.9239 106.937C58.5095 106.937 59.7622 106.423 60.6819 105.393C61.6333 104.331 62.1724 102.948 62.2993 101.242H65.9622C66.1207 103.205 66.7233 104.653 67.7698 105.586C68.8481 106.487 70.0215 106.937 71.29 106.937C72.178 106.937 73.0025 106.776 73.7637 106.455C74.5565 106.133 75.1908 105.538 75.6665 104.669C76.1422 103.8 76.38 102.545 76.38 100.905C76.38 99.1349 76.047 97.5744 75.381 96.2231C74.7151 94.8717 73.8271 93.7295 72.7171 92.7964C71.6389 91.8634 70.4179 91.1394 69.0542 90.6246C67.6905 90.0777 66.3269 89.7398 64.9632 89.6111C64.7412 89.6433 64.5034 89.6594 64.2497 89.6594C63.33 89.6594 62.442 89.4824 61.5857 89.1285C60.7612 88.7746 60.0001 88.115 59.3024 87.1497C58.6047 86.1523 58.0021 84.7527 57.4947 82.9509L61.443 81.6478C61.9187 83.4175 62.3786 84.5918 62.8225 85.171C63.2665 85.7501 63.8374 86.0397 64.5351 86.0397C65.1693 86.0397 65.756 85.8467 66.2952 85.4606C66.866 85.0423 67.6588 84.1896 68.6737 82.9027L70.1483 80.9722C71.2266 79.5565 72.2097 78.4303 73.0977 77.5938C74.0174 76.7572 74.9846 76.1459 75.9994 75.7598C77.0143 75.3737 78.2194 75.1807 79.6148 75.1807L79.9002 78.8969C78.7902 78.9612 77.8547 79.1382 77.0936 79.4278C76.3642 79.7173 75.6823 80.1839 75.048 80.8274C74.4455 81.4387 73.7319 82.2752 72.9074 83.337L71.8133 84.7849C71.179 85.6214 70.5765 86.3293 70.0056 86.9084C73.399 88.0667 75.9677 89.9007 77.712 92.4104C79.4562 94.8878 80.3283 97.687 80.3283 100.808C80.3283 103.06 79.9478 104.926 79.1866 106.406C78.4255 107.854 77.3948 108.948 76.0946 109.688C74.7943 110.396 73.3197 110.75 71.6706 110.75Z" fill="#E7F1FF"/>
</g>
<rect x="74.1477" y="37.2141" width="57.7698" height="57.013" fill="#011633" stroke="#FB5517" stroke-width="1.26029"/>
<g filter="url(#filter1_d_2_563)">
<path d="M93.6652 82.7487C91.2918 82.7487 89.1557 82.3676 87.2569 81.6055C85.3581 80.8433 83.855 79.7202 82.7473 78.236C81.6397 76.7518 81.0859 74.9668 81.0859 72.8809C81.0859 70.7951 81.6002 68.9699 82.6287 67.4055C83.6967 65.8411 85.3779 64.6377 87.6722 63.7954V48.6929H118.705V53.0251H107.609V62.2911H108.559C111.644 62.2911 114.136 62.5318 116.035 63.0132C117.934 63.4544 119.556 64.1965 120.9 65.2394C121.929 66.0417 122.74 67.1047 123.333 68.4284C123.927 69.712 124.223 71.1962 124.223 72.8809C124.223 75.9295 123.313 78.2962 121.494 79.9809C119.714 81.6656 117.182 82.508 113.899 82.508C112.989 82.508 112 82.4478 110.932 82.3275C109.864 82.2072 108.875 82.0066 107.965 81.7258L109.093 77.6945C110.398 78.0956 111.842 78.2962 113.424 78.2962C117.222 78.2962 119.12 76.4109 119.12 72.6403C119.12 70.7951 118.606 69.4513 117.578 68.6089C116.589 67.7264 115.323 67.1648 113.78 66.9242C112.237 66.6434 110.635 66.503 108.974 66.503H107.609V68.4284C107.609 71.116 107.372 73.2219 106.897 74.7462C106.462 76.2705 105.829 77.5541 104.998 78.597C103.772 80.1213 102.19 81.2043 100.252 81.8461C98.3528 82.4478 96.1573 82.7487 93.6652 82.7487ZM92.3598 53.0251V62.6521C94.0212 62.4115 95.8606 62.2911 97.8781 62.2911H102.566V53.0251H92.3598ZM86.1888 72.8208C86.1888 74.6659 86.9404 76.0699 88.4436 77.0326C89.9468 77.9552 91.8456 78.4165 94.1399 78.4165C95.8804 78.4165 97.3638 78.1558 98.5901 77.6343C99.8559 77.0727 100.825 76.1301 101.498 74.8063C102.21 73.4826 102.566 71.6174 102.566 69.2106V66.503H97.4627C95.4453 66.503 93.7245 66.6233 92.3005 66.864C90.916 67.1047 89.7292 67.5058 88.7403 68.0674C87.0393 69.0702 86.1888 70.6547 86.1888 72.8208Z" fill="#E7F1FF"/>
</g>
<rect x="83.9866" y="78.0813" width="57.7698" height="57.013" fill="#011633" stroke="#FB5517" stroke-width="1.26029"/>
<g filter="url(#filter2_d_2_563)">
<path d="M112.623 87.2896C117.872 87.2896 121.791 88.1209 124.381 89.7835C126.972 91.4233 128.267 93.8262 128.267 96.992V97.5386H124.817V97.0603C124.817 94.7144 123.79 92.9949 121.735 91.9016C119.703 90.7856 116.643 90.2276 112.556 90.2276C108.559 90.2276 105.611 90.7173 103.713 91.6966C101.837 92.6532 100.854 94.2703 100.765 96.5479H104.885V99.5542H100.798V121.829H97.2812V99.5542H93.1943V96.5479H97.2812C97.3705 93.4048 98.6546 91.0817 101.133 89.5785C103.635 88.0525 107.465 87.2896 112.623 87.2896Z" fill="#E7F1FF"/>
<path d="M110.405 111.238V114.586C110.405 115.907 110.707 116.978 111.31 117.798C111.935 118.595 112.884 118.993 114.157 118.993C115.274 118.993 116.145 118.629 116.77 117.9C117.395 117.148 117.708 116.169 117.708 114.962V114.484H121.125V114.996C121.125 117.205 120.511 118.948 119.282 120.223C118.054 121.476 116.379 122.102 114.258 122.102C111.913 122.102 110.093 121.408 108.797 120.018C107.502 118.606 106.854 116.716 106.854 114.347V108.198H111.678C113.509 108.198 115.006 107.799 116.167 107.002C117.351 106.205 117.942 104.986 117.942 103.346C117.942 102.117 117.619 101.149 116.971 100.442C116.323 99.7137 115.441 99.3493 114.325 99.3493C113.208 99.3493 112.326 99.7137 111.678 100.442C111.031 101.149 110.707 102.117 110.707 103.346C110.707 103.642 110.729 104.109 110.774 104.747H107.29C107.201 104.064 107.156 103.563 107.156 103.244C107.156 101.855 107.446 100.636 108.027 99.5884C108.607 98.518 109.434 97.698 110.506 97.1286C111.6 96.5365 112.873 96.2404 114.325 96.2404C116.491 96.2404 118.222 96.8895 119.517 98.1877C120.834 99.4631 121.493 101.262 121.493 103.586C121.493 106.068 120.689 107.97 119.081 109.291C117.496 110.589 115.441 111.238 112.918 111.238H110.405ZM132.548 96.5479V99.5542H128.461V121.829H124.91V96.5479H132.548Z" fill="#E7F1FF"/>
</g>
<defs>
<filter id="filter0_d_2_563" x="47.0293" y="75.1807" width="39.0803" height="41.3508" filterUnits="userSpaceOnUse" color-interpolation-filters="sRGB">
<feFlood flood-opacity="0" result="BackgroundImageFix"/>
<feColorMatrix in="SourceAlpha" type="matrix" values="0 0 0 0 0 0 0 0 0 0 0 0 0 0 0 0 0 0 127 0" result="hardAlpha"/>
<feOffset dx="2.89073" dy="2.89073"/>
<feGaussianBlur stdDeviation="1.44537"/>
<feComposite in2="hardAlpha" operator="out"/>
<feColorMatrix type="matrix" values="0 0 0 0 0 0 0 0 0 0 0 0 0 0 0 0 0 0 0.25 0"/>
<feBlend mode="normal" in2="BackgroundImageFix" result="effect1_dropShadow_2_563"/>
<feBlend mode="normal" in="SourceGraphic" in2="effect1_dropShadow_2_563" result="shape"/>
</filter>
<filter id="filter1_d_2_563" x="81.0859" y="48.6929" width="48.9192" height="39.8371" filterUnits="userSpaceOnUse" color-interpolation-filters="sRGB">
<feFlood flood-opacity="0" result="BackgroundImageFix"/>
<feColorMatrix in="SourceAlpha" type="matrix" values="0 0 0 0 0 0 0 0 0 0 0 0 0 0 0 0 0 0 127 0" result="hardAlpha"/>
<feOffset dx="2.89073" dy="2.89073"/>
<feGaussianBlur stdDeviation="1.44537"/>
<feComposite in2="hardAlpha" operator="out"/>
<feColorMatrix type="matrix" values="0 0 0 0 0 0 0 0 0 0 0 0 0 0 0 0 0 0 0.25 0"/>
<feBlend mode="normal" in2="BackgroundImageFix" result="effect1_dropShadow_2_563"/>
<feBlend mode="normal" in="SourceGraphic" in2="effect1_dropShadow_2_563" result="shape"/>
</filter>
<filter id="filter2_d_2_563" x="93.1943" y="87.2896" width="45.135" height="40.594" filterUnits="userSpaceOnUse" color-interpolation-filters="sRGB">
<feFlood flood-opacity="0" result="BackgroundImageFix"/>
<feColorMatrix in="SourceAlpha" type="matrix" values="0 0 0 0 0 0 0 0 0 0 0 0 0 0 0 0 0 0 127 0" result="hardAlpha"/>
<feOffset dx="2.89073" dy="2.89073"/>
<feGaussianBlur stdDeviation="1.44537"/>
<feComposite in2="hardAlpha" operator="out"/>
<feColorMatrix type="matrix" values="0 0 0 0 0 0 0 0 0 0 0 0 0 0 0 0 0 0 0.25 0"/>
<feBlend mode="normal" in2="BackgroundImageFix" result="effect1_dropShadow_2_563"/>
<feBlend mode="normal" in="SourceGraphic" in2="effect1_dropShadow_2_563" result="shape"/>
</filter>
</defs>
</svg>
