<svg width="180" height="181" viewBox="0 0 180 181" fill="none" xmlns="http://www.w3.org/2000/svg">
<ellipse cx="89.9524" cy="90.1816" rx="89.9524" ry="90" fill="#FB5517"/>
<path d="M93.5509 180.04L31.5186 123.917L94.2109 49.3071C105.21 55.2495 159.939 78.3589 180 86.2822C178.944 94.7336 177.361 109.612 176.701 115.994C172.741 128.319 159.675 155.742 139.085 166.835C118.496 177.927 100.15 180.26 93.5509 180.04Z" fill="#E34509"/>
<ellipse cx="89.5105" cy="61.3761" rx="12.7224" ry="12.7291" fill="#011633"/>
<path d="M72.1621 82.349C72.1621 76.7736 76.6818 72.2539 82.2572 72.2539H97.6898C103.265 72.2539 107.785 76.7736 107.785 82.349V98.638H72.1621V82.349Z" fill="#011633"/>
<ellipse cx="49.3635" cy="84.8868" rx="13.5706" ry="13.5778" fill="#011633"/>
<path d="M30.8584 106.585C30.8584 101.009 35.3781 96.4897 40.9535 96.4897H58.7609C64.3363 96.4897 68.856 101.009 68.856 106.585V124.633H30.8584V106.585Z" fill="#011633"/>
<ellipse cx="129.076" cy="85.3841" rx="13.4009" ry="13.408" fill="#011633"/>
<path d="M110.802 106.937C110.802 101.362 115.321 96.8418 120.897 96.8418H138.229C143.805 96.8418 148.324 101.362 148.324 106.937V124.633H110.802V106.937Z" fill="#011633"/>
<path d="M72.1369 53.81C72.6953 53.1979 72.6521 52.2489 72.0404 51.6904L62.0722 42.5887C61.4605 42.0301 60.512 42.0736 59.9536 42.6856C59.3952 43.2977 59.4384 44.2467 60.0501 44.8052L68.9107 52.8956L60.822 61.7617C60.2636 62.3738 60.3068 63.3228 60.9185 63.8813C61.5302 64.4398 62.4788 64.3964 63.0372 63.7843L72.1369 53.81ZM49.6738 68.1167C51.8679 64.7139 53.689 61.5111 56.7417 58.9808C59.721 56.5114 63.9783 54.6232 71.0976 54.2974L70.9611 51.2999C63.3211 51.6496 58.4016 53.7087 54.8285 56.6703C51.3288 59.571 49.2216 63.283 47.1534 66.4905L49.6738 68.1167Z" fill="#E7F1FF"/>
<path d="M125.816 68.9867C126.572 69.3255 127.46 68.987 127.798 68.2307L133.314 55.907C133.652 55.1508 133.314 54.2631 132.558 53.9244C131.802 53.5857 130.915 53.9241 130.576 54.6804L125.674 65.6348L114.724 60.7284C113.968 60.3896 113.081 60.7281 112.743 61.4844C112.404 62.2406 112.743 63.1283 113.498 63.467L125.816 68.9867ZM106.427 53.1235C110.12 54.0838 113.501 54.7645 116.647 56.7392C119.712 58.6631 122.643 61.8963 125.028 68.152L127.83 67.0829C125.26 60.3398 121.959 56.5312 118.241 54.1973C114.603 51.9141 110.649 51.1211 107.181 50.2192L106.427 53.1235Z" fill="#E7F1FF"/>
<path d="M77.7041 122.684C76.8771 122.73 76.2449 123.439 76.292 124.266L77.0603 137.746C77.1074 138.573 77.8161 139.206 78.643 139.159C79.47 139.112 80.1022 138.404 80.0551 137.577L79.3722 125.594L91.3515 124.917C92.1785 124.87 92.8107 124.162 92.7636 123.335C92.7164 122.507 92.0078 121.875 91.1808 121.922L77.7041 122.684ZM102.216 127.855C98.4951 128.701 95.1796 129.651 91.478 129.344C87.8715 129.045 83.782 127.521 78.7879 123.062L76.791 125.3C82.1741 130.106 86.8565 131.971 91.2315 132.334C95.5115 132.689 99.3872 131.575 102.882 130.781L102.216 127.855Z" fill="#E7F1FF"/>
</svg>
