<svg width="180" height="181" viewBox="0 0 180 181" fill="none" xmlns="http://www.w3.org/2000/svg">
<ellipse cx="89.7446" cy="90.1816" rx="89.7446" ry="90" fill="#FB5517"/>
<path d="M178.251 77.1469L129.975 41.7676L50.752 133.63L90.9823 180.181C111.407 178.94 116.977 175.837 126.261 172.112C135.545 168.388 150.399 158.457 159.683 146.043C168.967 133.63 171.443 126.181 177.013 110.664C181.47 98.2503 180.108 85.2159 178.251 77.1469Z" fill="#E34509"/>
<rect x="61.6816" y="41.147" width="68.4534" height="86.5314" fill="#011633"/>
<path d="M86.6954 106.555C85.4584 106.555 84.3698 106.299 83.4297 105.786C82.5061 105.273 81.7804 104.537 81.2526 103.578C80.7248 102.602 80.4609 101.444 80.4609 100.105C80.4609 98.7649 80.7166 97.6154 81.2279 96.6561C81.7557 95.6802 82.4731 94.9359 83.3802 94.4231C84.3039 93.9104 85.3594 93.654 86.5469 93.654C87.7509 93.654 88.7735 93.9021 89.6147 94.3983C90.4558 94.8945 91.0991 95.5727 91.5444 96.4328C91.9897 97.2929 92.2123 98.2687 92.2123 99.3604C92.2123 99.6746 92.2041 99.9641 92.1876 100.229C92.1711 100.493 92.1464 100.717 92.1134 100.899H83.0586C83.1741 102.056 83.5452 102.941 84.1719 103.553C84.8151 104.149 85.6398 104.446 86.6459 104.446C87.4705 104.446 88.1385 104.289 88.6498 103.975C89.1611 103.661 89.5652 103.222 89.8621 102.66L91.9649 103.653C91.5361 104.562 90.8517 105.273 89.9115 105.786C88.9879 106.299 87.9159 106.555 86.6954 106.555ZM86.4975 95.7629C85.5903 95.7629 84.8399 96.0275 84.2461 96.5568C83.6689 97.0861 83.2978 97.8552 83.1328 98.8642H89.6394C89.5734 97.8718 89.2601 97.1109 88.6993 96.5816C88.1385 96.0358 87.4046 95.7629 86.4975 95.7629Z" fill="#E7F1FF"/>
<path d="M100.676 106.555C99.6539 106.555 98.7303 106.299 97.9056 105.786C97.0809 105.273 96.4212 104.537 95.9264 103.578C95.4481 102.619 95.209 101.469 95.209 100.129C95.209 98.7401 95.4646 97.5658 95.9759 96.6064C96.4872 95.6471 97.1716 94.9193 98.0293 94.4231C98.8869 93.9104 99.827 93.654 100.85 93.654C101.74 93.654 102.515 93.869 103.175 94.2991C103.851 94.7126 104.354 95.2667 104.684 95.9614V88.3198H107.331V106.307H104.981L104.833 103.95C104.503 104.777 103.959 105.422 103.2 105.885C102.441 106.332 101.6 106.555 100.676 106.555ZM101.245 104.422C102.285 104.422 103.117 104.025 103.744 103.231C104.371 102.437 104.684 101.345 104.684 99.9558C104.684 98.6657 104.371 97.6567 103.744 96.929C103.134 96.1847 102.334 95.8125 101.344 95.8125C100.239 95.8125 99.3817 96.1929 98.7715 96.9538C98.1612 97.7146 97.8561 98.7649 97.8561 100.105C97.8561 101.444 98.153 102.503 98.7467 103.28C99.3405 104.041 100.173 104.422 101.245 104.422Z" fill="#E7F1FF"/>
<path d="M116.212 106.555C115.404 106.555 114.653 106.406 113.961 106.109C113.284 105.811 112.74 105.331 112.328 104.67C111.915 104.008 111.709 103.148 111.709 102.089V93.9021H114.356V101.42C114.356 102.544 114.587 103.322 115.049 103.752C115.527 104.165 116.204 104.372 117.078 104.372C117.639 104.372 118.166 104.248 118.661 104C119.156 103.735 119.552 103.33 119.849 102.784C120.162 102.222 120.319 101.502 120.319 100.626V93.9021H122.966V106.307H120.64L120.517 104.298C120.088 105.075 119.511 105.646 118.785 106.01C118.059 106.373 117.201 106.555 116.212 106.555Z" fill="#E7F1FF"/>
<path d="M79.9733 63.4917C83.1853 63.4917 85.5841 63.992 87.1696 64.9926C88.7551 65.9795 89.5479 67.4256 89.5479 69.3309V69.6599H87.4361V69.372C87.4361 67.9602 86.8074 66.9253 85.5499 66.2674C84.3061 65.5957 82.4336 65.2599 79.9323 65.2599C77.4857 65.2599 75.6815 65.5546 74.5197 66.144C73.3716 66.7197 72.7702 67.6929 72.7155 69.0636H75.2373V70.8729H72.736V84.2785H70.5833V70.8729H68.082V69.0636H70.5833C70.638 67.172 71.4239 65.7739 72.9411 64.8693C74.4719 63.9509 76.816 63.4917 79.9733 63.4917Z" fill="#E7F1FF"/>
<path d="M78.6157 77.9047V79.9196C78.6157 80.7146 78.8002 81.3588 79.1693 81.8523C79.552 82.3321 80.1329 82.5719 80.9119 82.5719C81.5954 82.5719 82.1284 82.3526 82.5111 81.914C82.8938 81.4617 83.0852 80.8722 83.0852 80.1458V79.8579H85.1764V80.1663C85.1764 81.4959 84.8005 82.5445 84.0488 83.3121C83.297 84.066 82.2719 84.4429 80.9735 84.4429C79.5383 84.4429 78.4243 84.0249 77.6316 83.1887C76.8388 82.3389 76.4425 81.2012 76.4425 79.7757V76.0748H79.3948C80.5156 76.0748 81.4313 75.8349 82.1421 75.3552C82.8665 74.8754 83.2287 74.1421 83.2287 73.1552C83.2287 72.415 83.0305 71.8324 82.6341 71.4075C82.2378 70.9689 81.6979 70.7496 81.0145 70.7496C80.331 70.7496 79.7912 70.9689 79.3948 71.4075C78.9984 71.8324 78.8002 72.415 78.8002 73.1552C78.8002 73.3334 78.8139 73.6144 78.8412 73.9982H76.709C76.6543 73.5869 76.627 73.2854 76.627 73.0935C76.627 72.2574 76.8047 71.524 77.16 70.8935C77.5154 70.2493 78.0211 69.7558 78.6772 69.4131C79.3469 69.0568 80.126 68.8786 81.0145 68.8786C82.3403 68.8786 83.3996 69.2692 84.1923 70.0505C84.9987 70.8181 85.4019 71.901 85.4019 73.2991C85.4019 74.7932 84.9099 75.9377 83.9258 76.7327C82.9553 77.514 81.6979 77.9047 80.1534 77.9047H78.6157ZM92.1677 69.0636V70.8729H89.6664V84.2785H87.4932V69.0636H92.1677Z" fill="#E7F1FF"/>
<path d="M108.942 69.0636V70.8729H106.441V84.2785H104.37V76.7327H98.3014C97.577 77.0754 97.0234 77.3632 96.6407 77.5963C96.2716 77.8293 95.9504 78.124 95.6771 78.4804C95.4174 78.8368 95.2875 79.2685 95.2875 79.7757C95.2875 80.3651 95.4789 80.8585 95.8616 81.256C96.258 81.6536 96.7774 81.8523 97.4198 81.8523C98.1032 81.8523 98.6431 81.633 99.0394 81.1944C99.4495 80.742 99.6545 80.1937 99.6545 79.5495H101.459V85.4504H99.4905V82.2018C99.2855 82.5719 98.9438 82.9077 98.4654 83.2093C97.987 83.4971 97.3993 83.6411 96.7022 83.6411C95.6224 83.6411 94.7476 83.3258 94.0779 82.6953C93.4082 82.0511 93.0733 81.2218 93.0733 80.2075C93.0733 79.5084 93.2236 78.9121 93.5243 78.4187C93.8387 77.9115 94.2351 77.4935 94.7135 77.1645C95.1919 76.8218 95.7864 76.4723 96.4972 76.1159C95.6497 75.9103 94.9527 75.5128 94.4059 74.9234C93.8729 74.3203 93.6064 73.5527 93.6064 72.6206C93.6064 71.8667 93.784 71.2088 94.1394 70.6468C94.5085 70.0711 95.0073 69.6325 95.6361 69.3309C96.2785 69.0156 96.9961 68.858 97.7888 68.858C98.5132 68.858 99.1693 68.9951 99.757 69.2692C100.358 69.5434 100.837 69.9477 101.192 70.4823C101.548 71.0032 101.725 71.6337 101.725 72.3739C101.725 72.9633 101.609 73.4841 101.377 73.9365C101.144 74.3751 100.823 74.7795 100.413 75.1496H104.37V69.0636H108.942ZM95.5336 72.7645C95.5336 73.4499 95.7933 74.0119 96.3126 74.4505C96.832 74.8754 97.5086 75.1016 98.3424 75.129C98.8481 74.8137 99.2376 74.4711 99.511 74.101C99.7844 73.7309 99.921 73.2922 99.921 72.7851C99.921 72.182 99.7092 71.6885 99.2855 71.3047C98.8754 70.9209 98.356 70.729 97.7273 70.729C97.1122 70.729 96.5928 70.9072 96.1691 71.2636C95.7454 71.62 95.5336 72.1203 95.5336 72.7645Z" fill="#E7F1FF"/>
<path d="M110.467 84.2785V70.8729H107.965V69.0636H115.121V70.8729H112.619V84.2785H110.467Z" fill="#E7F1FF"/>
<path d="M129.56 127.679H56.5043C53.3274 127.679 50.752 130.271 50.752 133.447V133.447C50.752 136.624 53.3274 139.216 56.5043 139.216H129.56" stroke="#000710" stroke-width="1.15048" stroke-linecap="round"/>
<path d="M61.6815 41.147H56.5043C53.3274 41.147 50.752 43.7224 50.752 46.8994V127.678V133.736C51.2313 132.197 52.6339 129.346 53.9158 128.832C56.792 127.678 59.6682 128.159 61.6815 127.678V41.147Z" fill="#000F21"/>
<path d="M56.5049 133.159H128.985" stroke="black" stroke-width="1.72572" stroke-linecap="round"/>
</svg>
