<svg width="180" height="181" viewBox="0 0 180 181" fill="none" xmlns="http://www.w3.org/2000/svg">
<circle cx="90" cy="90.1816" r="90" fill="#FB5517"/>
<path d="M80.8458 177.144L28.7451 129.535L149.116 51.3838L176.963 77.4341C178.759 93.6033 177.861 86.417 176.963 98.9931C176.064 111.569 170.675 128.637 159.895 142.111C139.235 172.653 102.405 179.839 80.8458 177.144Z" fill="#E34509"/>
<rect x="30.5851" y="52.3253" width="116.691" height="62.7747" fill="#E7F1FF" stroke="#000716" stroke-width="3.67988"/>
<rect x="28.7451" y="116.94" width="120.371" height="12.5386" fill="#031836"/>
<rect x="69.8848" y="129.479" width="38.8697" height="7.52316" fill="black"/>
<rect x="69.8848" y="137.002" width="38.8697" height="2.50772" fill="#0A2344"/>
<path d="M99.7282 92.2343C98.4769 92.2343 97.3758 91.9757 96.4249 91.4585C95.4906 90.9413 94.7565 90.1989 94.2227 89.2313C93.6888 88.2469 93.4219 87.0791 93.4219 85.7277C93.4219 84.3764 93.6805 83.2169 94.1977 82.2493C94.7315 81.2649 95.4573 80.5142 96.3748 79.997C97.3091 79.4798 98.3768 79.2212 99.5781 79.2212C100.796 79.2212 101.83 79.4715 102.681 79.972C103.532 80.4725 104.183 81.1565 104.633 82.024C105.084 82.8916 105.309 83.8759 105.309 84.977C105.309 85.294 105.3 85.5859 105.284 85.8529C105.267 86.1198 105.242 86.345 105.209 86.5286H96.0495C96.1663 87.6964 96.5417 88.589 97.1756 89.2062C97.8263 89.8068 98.6605 90.1071 99.6782 90.1071C100.512 90.1071 101.188 89.9487 101.705 89.6317C102.222 89.3147 102.631 88.8726 102.931 88.3053L105.059 89.3063C104.625 90.2239 103.932 90.9413 102.981 91.4585C102.047 91.9757 100.963 92.2343 99.7282 92.2343ZM99.528 81.3484C98.6104 81.3484 97.8513 81.6153 97.2507 82.1492C96.6668 82.683 96.2914 83.4588 96.1246 84.4765H102.706C102.639 83.4755 102.322 82.7081 101.755 82.1742C101.188 81.6236 100.446 81.3484 99.528 81.3484Z" fill="#011633"/>
<path d="M113.871 92.2343C112.836 92.2343 111.902 91.9757 111.068 91.4585C110.234 90.9413 109.566 90.1989 109.066 89.2313C108.582 88.2636 108.34 87.1041 108.34 85.7528C108.34 84.3514 108.599 83.1668 109.116 82.1992C109.633 81.2316 110.325 80.4975 111.193 79.997C112.06 79.4798 113.011 79.2212 114.046 79.2212C114.947 79.2212 115.731 79.4381 116.398 79.8719C117.082 80.289 117.591 80.8479 117.925 81.5486V73.8408H120.602V91.984H118.225L118.075 89.6066C117.741 90.4408 117.191 91.0915 116.423 91.5586C115.656 92.0091 114.805 92.2343 113.871 92.2343ZM114.446 90.0821C115.497 90.0821 116.34 89.6817 116.974 88.8809C117.608 88.0801 117.925 86.979 117.925 85.5776C117.925 84.2763 117.608 83.2586 116.974 82.5245C116.356 81.7738 115.547 81.3984 114.546 81.3984C113.428 81.3984 112.561 81.7821 111.944 82.5496C111.326 83.317 111.018 84.3764 111.018 85.7277C111.018 87.0791 111.318 88.1468 111.919 88.931C112.519 89.6984 113.362 90.0821 114.446 90.0821Z" fill="#011633"/>
<path d="M129.585 92.2343C128.768 92.2343 128.009 92.0841 127.308 91.7838C126.624 91.4835 126.073 90.9997 125.656 90.3324C125.239 89.665 125.031 88.7975 125.031 87.7298V79.4715H127.708V87.0541C127.708 88.1886 127.942 88.9727 128.409 89.4064C128.893 89.8235 129.577 90.0321 130.461 90.0321C131.028 90.0321 131.562 89.9069 132.063 89.6567C132.563 89.3898 132.964 88.981 133.264 88.4305C133.581 87.8632 133.739 87.1375 133.739 86.2533V79.4715H136.417V91.984H134.065L133.939 89.957C133.506 90.7411 132.922 91.3167 132.188 91.6837C131.454 92.0508 130.586 92.2343 129.585 92.2343Z" fill="#011633"/>
<circle cx="89.8288" cy="122.348" r="1.79658" fill="#E9E9EA"/>
<g filter="url(#filter0_d_2_516)">
<path d="M51.3131 73.8408C54.012 73.8408 56.0276 74.26 57.3599 75.0984C58.6921 75.9253 59.3582 77.137 59.3582 78.7334V79.009H57.5838V78.7678C57.5838 77.5849 57.0555 76.7178 55.9989 76.1665C54.9538 75.6037 53.3804 75.3224 51.2786 75.3224C49.2229 75.3224 47.7069 75.5693 46.7306 76.0631C45.7659 76.5455 45.2606 77.3609 45.2146 78.5094H47.3336V80.0254H45.2319V91.2576H43.423V80.0254H41.3213V78.5094H43.423C43.469 76.9245 44.1293 75.753 45.4041 74.995C46.6904 74.2256 48.6601 73.8408 51.3131 73.8408Z" fill="#011633"/>
<path d="M50.1723 85.9171V87.6054C50.1723 88.2715 50.3274 88.8113 50.6375 89.2248C50.959 89.6267 51.4471 89.8277 52.1018 89.8277C52.676 89.8277 53.1239 89.6439 53.4455 89.2764C53.7671 88.8974 53.9279 88.4036 53.9279 87.7949V87.5537H55.685V87.8121C55.685 88.9261 55.3692 89.8047 54.7375 90.4479C54.1059 91.0795 53.2445 91.3954 52.1535 91.3954C50.9476 91.3954 50.0115 91.0451 49.3454 90.3445C48.6793 89.6325 48.3462 88.6792 48.3462 87.4848V84.3839H50.827C51.7687 84.3839 52.5382 84.1829 53.1354 83.7809C53.7441 83.379 54.0485 82.7645 54.0485 81.9376C54.0485 81.3174 53.8819 80.8293 53.5489 80.4733C53.2158 80.1058 52.7622 79.922 52.1879 79.922C51.6137 79.922 51.16 80.1058 50.827 80.4733C50.4939 80.8293 50.3274 81.3174 50.3274 81.9376C50.3274 82.0869 50.3389 82.3224 50.3618 82.6439H48.5702C48.5243 82.2994 48.5013 82.0467 48.5013 81.8859C48.5013 81.1854 48.6506 80.5709 48.9492 80.0426C49.2478 79.5028 49.6727 79.0894 50.224 78.8023C50.7868 78.5037 51.4414 78.3544 52.1879 78.3544C53.3019 78.3544 54.192 78.6817 54.8581 79.3363C55.5357 79.9795 55.8745 80.8868 55.8745 82.0582C55.8745 83.3101 55.4611 84.269 54.6342 84.9352C53.8188 85.5898 52.7622 85.9171 51.4644 85.9171H50.1723ZM61.5595 78.5094V80.0254H59.4578V91.2576H57.6317V78.5094H61.5595Z" fill="#011633"/>
<path d="M75.6544 78.5094V80.0254H73.5527V91.2576H71.8127V84.9352H66.7134C66.1047 85.2223 65.6396 85.4635 65.318 85.6587C65.0079 85.854 64.738 86.1009 64.5084 86.3995C64.2901 86.6981 64.181 87.0599 64.181 87.4848C64.181 87.9786 64.3418 88.3921 64.6634 88.7252C64.9965 89.0582 65.4329 89.2248 65.9727 89.2248C66.5469 89.2248 67.0006 89.041 67.3336 88.6735C67.6782 88.2945 67.8504 87.8351 67.8504 87.2953H69.3664V92.2395H67.7126V89.5176C67.5403 89.8277 67.2532 90.1091 66.8513 90.3617C66.4493 90.6029 65.9554 90.7235 65.3697 90.7235C64.4624 90.7235 63.7274 90.4594 63.1646 89.9311C62.6019 89.3913 62.3205 88.6964 62.3205 87.8466C62.3205 87.2608 62.4468 86.7613 62.6995 86.3478C62.9636 85.9229 63.2967 85.5726 63.6987 85.2969C64.1006 85.0098 64.6002 84.717 65.1974 84.4183C64.4854 84.2461 63.8997 83.913 63.4403 83.4192C62.9924 82.9138 62.7684 82.2707 62.7684 81.4897C62.7684 80.8581 62.9177 80.3068 63.2163 79.8359C63.5264 79.3535 63.9456 78.986 64.4739 78.7334C65.0137 78.4692 65.6166 78.3371 66.2828 78.3371C66.8915 78.3371 67.4427 78.452 67.9366 78.6817C68.4419 78.9114 68.8439 79.2502 69.1425 79.6981C69.4411 80.1345 69.5904 80.6628 69.5904 81.283C69.5904 81.7768 69.4928 82.2133 69.2975 82.5923C69.1023 82.9598 68.8324 83.2986 68.4878 83.6087H71.8127V78.5094H75.6544ZM64.3878 81.6103C64.3878 82.1845 64.606 82.6554 65.0424 83.0229C65.4788 83.379 66.0473 83.5685 66.7479 83.5914C67.1728 83.3273 67.5001 83.0402 67.7298 82.7301C67.9595 82.42 68.0744 82.0525 68.0744 81.6275C68.0744 81.1222 67.8964 80.7087 67.5403 80.3872C67.1958 80.0656 66.7594 79.9048 66.2311 79.9048C65.7143 79.9048 65.2778 80.0541 64.9218 80.3527C64.5658 80.6513 64.3878 81.0705 64.3878 81.6103Z" fill="#011633"/>
<path d="M76.9354 91.2576V80.0254H74.8337V78.5094H80.846V80.0254H78.7442V91.2576H76.9354Z" fill="#011633"/>
</g>
<path d="M93.4217 72.0444L84.0055 97.1965H80.8457L90.2619 72.0444H93.4217Z" fill="#011633"/>
<defs>
<filter id="filter0_d_2_516" x="41.3213" y="73.8408" width="40.2204" height="19.0949" filterUnits="userSpaceOnUse" color-interpolation-filters="sRGB">
<feFlood flood-opacity="0" result="BackgroundImageFix"/>
<feColorMatrix in="SourceAlpha" type="matrix" values="0 0 0 0 0 0 0 0 0 0 0 0 0 0 0 0 0 0 127 0" result="hardAlpha"/>
<feOffset dx="0.347992" dy="0.347992"/>
<feGaussianBlur stdDeviation="0.173996"/>
<feComposite in2="hardAlpha" operator="out"/>
<feColorMatrix type="matrix" values="0 0 0 0 0 0 0 0 0 0 0 0 0 0 0 0 0 0 0.25 0"/>
<feBlend mode="normal" in2="BackgroundImageFix" result="effect1_dropShadow_2_516"/>
<feBlend mode="normal" in="SourceGraphic" in2="effect1_dropShadow_2_516" result="shape"/>
</filter>
</defs>
</svg>
